# xmcd CD database file
#
# Track frame offsets:
#	180
#	21063
#	41896
#	80659
#	100336
#	119498
#	137731
#	147300
#	171733
#	187124
#	216242
#	247839
#
# Disc length: 3585 seconds
#
# Revision: 0
# Processed by: cddbd v1.5.2PL0 Copyright (c) Steve Scherf et al.
# Submitted via: CDex 1.51
#
DISCID=b80dff0c
DTITLE=Duo Art Connection - Ines Feix and Rolf Burket
DYEAR=1996
DGENRE=Jazz
TTITLE0=Warming up
TTITLE1=You are the Sunshine of my Life
TTITLE2=Uli´s Mühle
TTITLE3=Sonntagsfrühstück
TTITLE4=Garota de Ipanema
TTITLE5=ART-ig
TTITLE6=Yin-Yang
TTITLE7=My Favorite Things
TTITLE8=Zoe´s Room
TTITLE9=Schotten-Rock
TTITLE10=Summertime
TTITLE11=Zu guter Letzt
EXTD=YEAR: 1996
EXTT0=
EXTT1=
EXTT2=
EXTT3=
EXTT4=
EXTT5=
EXTT6=
EXTT7=
EXTT8=
EXTT9=
EXTT10=
EXTT11=
PLAYORDER=
